<?xml version="1.0" encoding="UTF-8" standalone="no"?>
<!-- Created with Inkscape (http://www.inkscape.org/) -->

<svg
   width="256"
   height="256"
   viewBox="0 0 67.733334 67.733332"
   version="1.1"
   id="svg5"
   inkscape:version="1.2.2 (732a01da63, 2022-12-09)"
   sodipodi:docname="teacher.svg"
   inkscape:export-filename="teacher.png"
   inkscape:export-xdpi="96"
   inkscape:export-ydpi="96"
   xmlns:inkscape="http://www.inkscape.org/namespaces/inkscape"
   xmlns:sodipodi="http://sodipodi.sourceforge.net/DTD/sodipodi-0.dtd"
   xmlns="http://www.w3.org/2000/svg"
   xmlns:svg="http://www.w3.org/2000/svg">
  <sodipodi:namedview
     id="namedview7"
     pagecolor="#ffffff"
     bordercolor="#cccccc"
     borderopacity="1"
     inkscape:showpageshadow="0"
     inkscape:pageopacity="1"
     inkscape:pagecheckerboard="0"
     inkscape:deskcolor="#d1d1d1"
     inkscape:document-units="px"
     showgrid="false"
     inkscape:zoom="8.0000001"
     inkscape:cx="114.8125"
     inkscape:cy="153.0625"
     inkscape:window-width="1920"
     inkscape:window-height="991"
     inkscape:window-x="-9"
     inkscape:window-y="-9"
     inkscape:window-maximized="1"
     inkscape:current-layer="layer3" />
  <defs
     id="defs2" />
  <g
     inkscape:groupmode="layer"
     id="layer6"
     inkscape:label="hair"
     style="fill:#393023;fill-opacity:1;stroke:none">
    <path
       style="font-variation-settings:normal;opacity:1;vector-effect:none;fill:#393023;fill-opacity:1;fill-rule:evenodd;stroke:none;stroke-width:2.08482;stroke-linecap:butt;stroke-linejoin:miter;stroke-miterlimit:4;stroke-dasharray:none;stroke-dashoffset:0;stroke-opacity:1;-inkscape-stroke:none;stop-color:#000000;stop-opacity:1"
       id="path13934"
       sodipodi:type="arc"
       sodipodi:cx="25.309647"
       sodipodi:cy="21.973177"
       sodipodi:rx="4.7704897"
       sodipodi:ry="4.6775932"
       sodipodi:start="6.2771014"
       sodipodi:end="6.2767191"
       sodipodi:open="true"
       sodipodi:arc-type="arc"
       d="m 30.080048,21.944719 a 4.7704897,4.6775932 0 0 1 -4.740922,4.705962 4.7704897,4.6775932 0 0 1 -4.799875,-4.648152 4.7704897,4.6775932 0 0 1 4.740005,-4.70685 4.7704897,4.6775932 0 0 1 4.800781,4.647252" />
    <path
       style="font-variation-settings:normal;opacity:1;vector-effect:none;fill:#393023;fill-opacity:1;fill-rule:evenodd;stroke:none;stroke-width:2.08482;stroke-linecap:butt;stroke-linejoin:miter;stroke-miterlimit:4;stroke-dasharray:none;stroke-dashoffset:0;stroke-opacity:1;-inkscape-stroke:none;stop-color:#000000;stop-opacity:1"
       id="path13936"
       sodipodi:type="arc"
       sodipodi:cx="41.785999"
       sodipodi:cy="21.973177"
       sodipodi:rx="4.2417593"
       sodipodi:ry="4.0437675"
       sodipodi:start="6.2771014"
       sodipodi:end="6.2767191"
       sodipodi:open="true"
       sodipodi:arc-type="arc"
       d="m 46.02768,21.948575 a 4.2417593,4.0437675 0 0 1 -4.215469,4.068292 4.2417593,4.0437675 0 0 1 -4.267887,-4.018315 4.2417593,4.0437675 0 0 1 4.214653,-4.06906 4.2417593,4.0437675 0 0 1 4.268693,4.017537" />
    <path
       style="font-variation-settings:normal;opacity:1;vector-effect:none;fill:#393023;fill-opacity:1;fill-rule:evenodd;stroke:none;stroke-width:2.51615;stroke-linecap:butt;stroke-linejoin:miter;stroke-miterlimit:4;stroke-dasharray:none;stroke-dashoffset:0;stroke-opacity:1;-inkscape-stroke:none;stop-color:#000000;stop-opacity:1"
       id="path13938"
       sodipodi:type="arc"
       sodipodi:cx="24.689535"
       sodipodi:cy="28.672386"
       sodipodi:rx="5.672514"
       sodipodi:ry="5.8186355"
       sodipodi:start="6.2771014"
       sodipodi:end="6.2767191"
       sodipodi:open="true"
       sodipodi:arc-type="arc"
       d="m 30.361944,28.636986 a 5.672514,5.8186355 0 0 1 -5.637356,5.853925 5.672514,5.8186355 0 0 1 -5.707455,-5.782013 5.672514,5.8186355 0 0 1 5.636265,-5.855029 5.672514,5.8186355 0 0 1 5.708533,5.780893" />
    <path
       style="font-variation-settings:normal;opacity:1;vector-effect:none;fill:#393023;fill-opacity:1;fill-rule:evenodd;stroke:none;stroke-width:2.08482;stroke-linecap:butt;stroke-linejoin:miter;stroke-miterlimit:4;stroke-dasharray:none;stroke-dashoffset:0;stroke-opacity:1;-inkscape-stroke:none;stop-color:#000000;stop-opacity:1"
       id="path13940"
       sodipodi:type="arc"
       sodipodi:cx="42.642307"
       sodipodi:cy="28.198612"
       sodipodi:rx="5.5337892"
       sodipodi:ry="5.442368"
       sodipodi:start="6.2771014"
       sodipodi:end="6.2767191"
       sodipodi:open="true"
       sodipodi:arc-type="arc"
       d="m 48.175994,28.165502 a 5.5337892,5.442368 0 0 1 -5.499491,5.475374 5.5337892,5.442368 0 0 1 -5.567876,-5.408113 5.5337892,5.442368 0 0 1 5.498427,-5.476408 5.5337892,5.442368 0 0 1 5.568927,5.407066" />
    <path
       style="font-variation-settings:normal;opacity:1;vector-effect:none;fill:#393023;fill-opacity:1;fill-rule:evenodd;stroke:none;stroke-width:2.51615;stroke-linecap:butt;stroke-linejoin:miter;stroke-miterlimit:4;stroke-dasharray:none;stroke-dashoffset:0;stroke-opacity:1;-inkscape-stroke:none;stop-color:#000000;stop-opacity:1"
       id="path13949"
       sodipodi:type="arc"
       sodipodi:cx="34.538216"
       sodipodi:cy="28.198612"
       sodipodi:rx="5.672514"
       sodipodi:ry="5.8186355"
       sodipodi:start="6.2771014"
       sodipodi:end="6.2767191"
       sodipodi:open="true"
       sodipodi:arc-type="arc"
       d="m 40.210625,28.163212 a 5.672514,5.8186355 0 0 1 -5.637356,5.853925 5.672514,5.8186355 0 0 1 -5.707456,-5.782013 5.672514,5.8186355 0 0 1 5.636265,-5.855029 5.672514,5.8186355 0 0 1 5.708533,5.780893" />
  </g>
  <g
     inkscape:label="face"
     inkscape:groupmode="layer"
     id="layer1"
     style="fill:#ffd39c;fill-opacity:1;stroke:none">
    <rect
       style="font-variation-settings:normal;opacity:1;vector-effect:none;fill:#ffd39c;fill-opacity:1;fill-rule:evenodd;stroke:none;stroke-width:0.824099;stroke-linecap:butt;stroke-linejoin:miter;stroke-miterlimit:4;stroke-dasharray:none;stroke-dashoffset:0;stroke-opacity:1;-inkscape-stroke:none;stop-color:#000000;stop-opacity:1"
       id="rect3563"
       width="5.7760496"
       height="12.033437"
       x="30.924164"
       y="23.185139"
       ry="4.8468008"
       rx="0" />
    <path
       style="fill:#ffd39c;fill-opacity:1;stroke:none;stroke-width:0.625447"
       id="path2345"
       sodipodi:type="arc"
       sodipodi:cx="33.812183"
       sodipodi:cy="15.435609"
       sodipodi:rx="11.215162"
       sodipodi:ry="11.215162"
       sodipodi:start="6.2771014"
       sodipodi:end="6.2767191"
       sodipodi:open="true"
       sodipodi:arc-type="arc"
       d="M 45.027138,15.367377 A 11.215162,11.215162 0 0 1 33.881487,26.650557 11.215162,11.215162 0 0 1 22.597242,15.505984 11.215162,11.215162 0 0 1 33.740736,4.2206742 11.215162,11.215162 0 0 1 45.027111,15.36309" />
    <path
       style="font-variation-settings:normal;opacity:1;vector-effect:none;fill:#ffd39c;fill-opacity:1;fill-rule:evenodd;stroke:none;stroke-width:0.625447;stroke-linecap:butt;stroke-linejoin:miter;stroke-miterlimit:4;stroke-dasharray:none;stroke-dashoffset:0;stroke-opacity:1;-inkscape-stroke:none;stop-color:#000000;stop-opacity:1"
       id="path6893"
       sodipodi:type="arc"
       sodipodi:cx="17.449287"
       sodipodi:cy="23.026613"
       sodipodi:rx="1.6124804"
       sodipodi:ry="2.1900856"
       sodipodi:start="6.2771014"
       sodipodi:end="6.2767191"
       sodipodi:open="true"
       sodipodi:arc-type="arc"
       d="m 19.061738,23.013289 a 1.6124804,2.1900856 0 0 1 -1.602486,2.203368 1.6124804,2.1900856 0 0 1 -1.622413,-2.176301 1.6124804,2.1900856 0 0 1 1.602176,-2.203784 1.6124804,2.1900856 0 0 1 1.622719,2.17588"
       transform="rotate(-14.738063)" />
    <path
       style="font-variation-settings:normal;opacity:1;vector-effect:none;fill:#ffd39c;fill-opacity:1;fill-rule:evenodd;stroke:none;stroke-width:0.633843;stroke-linecap:butt;stroke-linejoin:miter;stroke-miterlimit:4;stroke-dasharray:none;stroke-dashoffset:0;stroke-opacity:1;-inkscape-stroke:none;stop-color:#000000;stop-opacity:1"
       id="path6895"
       sodipodi:type="arc"
       sodipodi:cx="-48.123207"
       sodipodi:cy="6.0995665"
       sodipodi:rx="1.6531451"
       sodipodi:ry="2.1939523"
       sodipodi:start="6.2771014"
       sodipodi:end="6.2767191"
       sodipodi:open="true"
       sodipodi:arc-type="arc"
       d="m -46.470093,6.0862187 a 1.6531451,2.1939523 0 0 1 -1.642899,2.2072582 1.6531451,2.1939523 0 0 1 -1.663328,-2.1801434 1.6531451,2.1939523 0 0 1 1.642581,-2.2076748 1.6531451,2.1939523 0 0 1 1.663642,2.1797213"
       transform="matrix(-0.96872351,-0.24814264,-0.26079379,0.96539453,0,0)" />
    <path
       style="font-variation-settings:normal;opacity:1;vector-effect:none;fill:#393023;fill-opacity:1;fill-rule:evenodd;stroke:none;stroke-width:2.08482;stroke-linecap:butt;stroke-linejoin:miter;stroke-miterlimit:4;stroke-dasharray:none;stroke-dashoffset:0;stroke-opacity:1;-inkscape-stroke:none;stop-color:#000000;stop-opacity:1"
       id="path13981"
       sodipodi:type="arc"
       sodipodi:cx="28.865704"
       sodipodi:cy="17.604509"
       sodipodi:rx="0.70695943"
       sodipodi:ry="1.275638"
       sodipodi:start="6.2771014"
       sodipodi:end="6.2767191"
       sodipodi:open="true"
       sodipodi:arc-type="arc"
       d="m 29.57265,17.596749 a 0.70695943,1.275638 0 0 1 -0.702578,1.283374 0.70695943,1.275638 0 0 1 -0.711314,-1.267609 0.70695943,1.275638 0 0 1 0.702442,-1.283617 0.70695943,1.275638 0 0 1 0.711448,1.267364" />
    <path
       style="font-variation-settings:normal;opacity:1;vector-effect:none;fill:#393023;fill-opacity:1;fill-rule:evenodd;stroke:none;stroke-width:2.08482;stroke-linecap:butt;stroke-linejoin:miter;stroke-miterlimit:4;stroke-dasharray:none;stroke-dashoffset:0;stroke-opacity:1;-inkscape-stroke:none;stop-color:#000000;stop-opacity:1"
       id="path13983"
       sodipodi:type="arc"
       sodipodi:cx="38.668705"
       sodipodi:cy="17.604509"
       sodipodi:rx="0.70695943"
       sodipodi:ry="1.275638"
       sodipodi:start="6.2771014"
       sodipodi:end="6.2767191"
       sodipodi:open="true"
       sodipodi:arc-type="arc"
       d="m 39.375651,17.596749 a 0.70695943,1.275638 0 0 1 -0.702577,1.283374 0.70695943,1.275638 0 0 1 -0.711315,-1.267609 0.70695943,1.275638 0 0 1 0.702442,-1.283617 0.70695943,1.275638 0 0 1 0.711449,1.267364" />
    <path
       style="fill:none;fill-opacity:1;stroke:#c65353;stroke-width:0.551609;stroke-dasharray:none;stroke-opacity:1"
       d="m 30.774655,22.065653 c 2.052655,1.59431 4.155482,1.91761 6.345804,0.02437"
       id="path14773"
       sodipodi:nodetypes="cc" />
  </g>
  <g
     inkscape:groupmode="layer"
     id="layer2"
     inkscape:label="fringe"
     style="fill:#393023;fill-opacity:1;stroke:none">
    <path
       style="fill:#393023;fill-opacity:1;stroke:none;stroke-width:0.625447"
       d="m 21.661513,15.965077 1.921004,0.03807 10.229669,-5.284648 9.966596,5.328221 2.430942,0.06275 L 46.113457,9.7076896 43.754903,5.2312522 37.545648,2.7282974 34.176288,3.354036 29.603581,2.6801636 24.242286,5.9506409 21.661513,9.8520917 Z"
       id="path5387"
       sodipodi:nodetypes="ccccccccccccc" />
  </g>
  <g
     inkscape:groupmode="layer"
     id="layer5"
     inkscape:label="arm"
     style="fill:#ffd39c;fill-opacity:1;stroke:none">
    <rect
       style="font-variation-settings:normal;opacity:1;vector-effect:none;fill:#ffd39c;fill-opacity:1;fill-rule:evenodd;stroke:none;stroke-width:2.08482;stroke-linecap:butt;stroke-linejoin:miter;stroke-miterlimit:4;stroke-dasharray:none;stroke-dashoffset:0;stroke-opacity:1;-inkscape-stroke:none;stop-color:#000000;stop-opacity:1"
       id="rect13127"
       width="4.8728385"
       height="11.872684"
       x="19.695139"
       y="41.137196"
       ry="1.275597" />
    <rect
       style="font-variation-settings:normal;opacity:1;vector-effect:none;fill:#ffd39c;fill-opacity:1;fill-rule:evenodd;stroke:none;stroke-width:2.22638;stroke-linecap:butt;stroke-linejoin:miter;stroke-miterlimit:4;stroke-dasharray:none;stroke-dashoffset:0;stroke-opacity:1;-inkscape-stroke:none;stop-color:#000000;stop-opacity:1"
       id="rect13129"
       width="5.0104671"
       height="9.8076162"
       x="-3.1154077"
       y="54.749138"
       ry="1.4147441"
       transform="matrix(0.87020828,-0.49268403,0.40257931,0.91538511,0,0)" />
    <rect
       style="font-variation-settings:normal;opacity:1;vector-effect:none;fill:#ffd39c;fill-opacity:1;fill-rule:evenodd;stroke:none;stroke-width:2.08482;stroke-linecap:butt;stroke-linejoin:miter;stroke-miterlimit:4;stroke-dasharray:none;stroke-dashoffset:0;stroke-opacity:1;-inkscape-stroke:none;stop-color:#000000;stop-opacity:1"
       id="rect13134"
       width="4.8728385"
       height="11.872684"
       x="43.303257"
       y="41.137196"
       ry="1.275597" />
    <rect
       style="font-variation-settings:normal;opacity:1;vector-effect:none;fill:#ffd39c;fill-opacity:1;fill-rule:evenodd;stroke:none;stroke-width:2.22638;stroke-linecap:butt;stroke-linejoin:miter;stroke-miterlimit:4;stroke-dasharray:none;stroke-dashoffset:0;stroke-opacity:1;-inkscape-stroke:none;stop-color:#000000;stop-opacity:1"
       id="rect13136"
       width="5.0104671"
       height="9.8076162"
       x="-65.614357"
       y="21.110584"
       ry="1.4147441"
       transform="matrix(-0.87020828,-0.49268403,-0.40257931,0.91538511,0,0)" />
  </g>
  <g
     inkscape:groupmode="layer"
     id="layer4"
     inkscape:label="skirt"
     style="fill:#1c1220;fill-opacity:1">
    <rect
       style="fill:#3e455f;fill-opacity:1;stroke:none;stroke-width:0.712937"
       id="rect11493"
       width="18.368265"
       height="3.1717584"
       x="24.751486"
       y="51.734283"
       ry="0"
       rx="0" />
    <path
       style="fill:#3e455f;fill-opacity:1;stroke:none;stroke-width:0.619054"
       d="m 18.869784,67.765432 5.881702,-13.205807 h 18.368265 l 5.743798,13.205807 z"
       id="path11551" />
  </g>
  <g
     inkscape:groupmode="layer"
     id="layer3"
     inkscape:label="shirt"
     style="fill:#c488d8;fill-opacity:1;stroke:none">
    <rect
       style="fill:#c488d8;fill-opacity:1;stroke:none;stroke-width:0.629608"
       id="rect10120"
       width="18.735283"
       height="19.638569"
       x="24.567978"
       y="32.76376"
       ry="0"
       rx="0" />
    <path
       style="fill:#c488d8;fill-opacity:1;stroke:none;stroke-width:0.625447"
       d="m 30.924164,28.672387 -6.356186,4.091374 7.33309,2.085305 2.03455,-2.085305 z"
       id="path10914"
       sodipodi:nodetypes="ccccc" />
    <path
       style="fill:#c488d8;fill-opacity:1;stroke:none;stroke-width:0.625447"
       d="m 36.730472,28.672387 6.572787,4.091374 -7.098719,2.144866 -2.268922,-2.144866 z"
       id="path10904"
       sodipodi:nodetypes="ccccc" />
    <path
       style="fill:#c488d8;fill-opacity:1;stroke:none;stroke-width:0.713071"
       d="m 24.634299,32.725471 -3.670388,1.954028 -2.548296,9.431161 6.402875,0.01754 z"
       id="path10916"
       sodipodi:nodetypes="ccccc" />
    <path
       style="fill:#c488d8;fill-opacity:1;stroke:none;stroke-width:0.713255"
       d="m 43.283498,32.744864 3.678539,1.950704 2.553957,9.415117 -6.417096,0.01752 z"
       id="path10918"
       sodipodi:nodetypes="ccccc" />
  </g>
  <g
     inkscape:groupmode="layer"
     id="layer7"
     inkscape:label="nametag"
     style="fill:#1b150e;fill-opacity:1;stroke:#ffffff;stroke-opacity:1">
    <rect
       style="fill:#1b150e;fill-opacity:1;stroke:#ffffff;stroke-width:0.264583;stroke-opacity:1"
       id="rect1701"
       width="5.9420938"
       height="2.202395"
       x="36.404617"
       y="37.062534"
       ry="0.34051922" />
  </g>
</svg>
