<?xml version="1.0" encoding="UTF-8" standalone="no"?>
<!-- Created with Inkscape (http://www.inkscape.org/) -->

<svg
   width="128"
   height="128"
   viewBox="0 0 33.866667 33.866666"
   version="1.1"
   id="svg5"
   inkscape:version="1.2.2 (732a01da63, 2022-12-09)"
   sodipodi:docname="teacher.svg"
   inkscape:export-filename="teacher.png"
   inkscape:export-xdpi="96"
   inkscape:export-ydpi="96"
   xmlns:inkscape="http://www.inkscape.org/namespaces/inkscape"
   xmlns:sodipodi="http://sodipodi.sourceforge.net/DTD/sodipodi-0.dtd"
   xmlns="http://www.w3.org/2000/svg"
   xmlns:svg="http://www.w3.org/2000/svg">
  <sodipodi:namedview
     id="namedview7"
     pagecolor="#ffffff"
     bordercolor="#cccccc"
     borderopacity="1"
     inkscape:showpageshadow="0"
     inkscape:pageopacity="1"
     inkscape:pagecheckerboard="0"
     inkscape:deskcolor="#d1d1d1"
     inkscape:document-units="px"
     showgrid="false"
     inkscape:zoom="5.6568543"
     inkscape:cx="49.320698"
     inkscape:cy="62.490562"
     inkscape:window-width="1920"
     inkscape:window-height="991"
     inkscape:window-x="-9"
     inkscape:window-y="-9"
     inkscape:window-maximized="1"
     inkscape:current-layer="layer4" />
  <defs
     id="defs2" />
  <g
     inkscape:groupmode="layer"
     id="layer6"
     inkscape:label="hair"
     style="fill:#393023;fill-opacity:1;stroke:none">
    <path
       style="font-variation-settings:normal;opacity:1;vector-effect:none;fill:#393023;fill-opacity:1;fill-rule:evenodd;stroke:none;stroke-width:1;stroke-linecap:butt;stroke-linejoin:miter;stroke-miterlimit:4;stroke-dasharray:none;stroke-dashoffset:0;stroke-opacity:1;-inkscape-stroke:none;stop-color:#000000;stop-opacity:1"
       id="path13934"
       sodipodi:type="arc"
       sodipodi:cx="12.795825"
       sodipodi:cy="11.902093"
       sodipodi:rx="2.2881985"
       sodipodi:ry="2.2436402"
       sodipodi:start="6.2771014"
       sodipodi:end="6.2767191"
       sodipodi:open="true"
       sodipodi:arc-type="arc"
       d="m 15.083981,11.888443 a 2.2881985,2.2436402 0 0 1 -2.274016,2.257247 2.2881985,2.2436402 0 0 1 -2.302293,-2.229518 2.2881985,2.2436402 0 0 1 2.273576,-2.2576737 2.2881985,2.2436402 0 0 1 2.302728,2.2290867" />
    <path
       style="font-variation-settings:normal;opacity:1;vector-effect:none;fill:#393023;fill-opacity:1;fill-rule:evenodd;stroke:none;stroke-width:1;stroke-linecap:butt;stroke-linejoin:miter;stroke-miterlimit:4;stroke-dasharray:none;stroke-dashoffset:0;stroke-opacity:1;-inkscape-stroke:none;stop-color:#000000;stop-opacity:1"
       id="path13936"
       sodipodi:type="arc"
       sodipodi:cx="20.698824"
       sodipodi:cy="11.902093"
       sodipodi:rx="2.0345893"
       sodipodi:ry="1.9396211"
       sodipodi:start="6.2771014"
       sodipodi:end="6.2767191"
       sodipodi:open="true"
       sodipodi:arc-type="arc"
       d="m 22.733376,11.890293 a 2.0345893,1.9396211 0 0 1 -2.021979,1.951384 2.0345893,1.9396211 0 0 1 -2.047122,-1.927413 2.0345893,1.9396211 0 0 1 2.021587,-1.9517528 2.0345893,1.9396211 0 0 1 2.047509,1.9270398" />
    <path
       style="font-variation-settings:normal;opacity:1;vector-effect:none;fill:#393023;fill-opacity:1;fill-rule:evenodd;stroke:none;stroke-width:1.20689;stroke-linecap:butt;stroke-linejoin:miter;stroke-miterlimit:4;stroke-dasharray:none;stroke-dashoffset:0;stroke-opacity:1;-inkscape-stroke:none;stop-color:#000000;stop-opacity:1"
       id="path13938"
       sodipodi:type="arc"
       sodipodi:cx="12.498384"
       sodipodi:cy="15.115415"
       sodipodi:rx="2.7208607"
       sodipodi:ry="2.7909489"
       sodipodi:start="6.2771014"
       sodipodi:end="6.2767191"
       sodipodi:open="true"
       sodipodi:arc-type="arc"
       d="m 15.219195,15.098435 a 2.7208607,2.7909489 0 0 1 -2.703997,2.807875 2.7208607,2.7909489 0 0 1 -2.7376207,-2.773382 2.7208607,2.7909489 0 0 1 2.7034737,-2.808406 2.7208607,2.7909489 0 0 1 2.738137,2.772846" />
    <path
       style="font-variation-settings:normal;opacity:1;vector-effect:none;fill:#393023;fill-opacity:1;fill-rule:evenodd;stroke:none;stroke-width:1;stroke-linecap:butt;stroke-linejoin:miter;stroke-miterlimit:4;stroke-dasharray:none;stroke-dashoffset:0;stroke-opacity:1;-inkscape-stroke:none;stop-color:#000000;stop-opacity:1"
       id="path13940"
       sodipodi:type="arc"
       sodipodi:cx="21.109558"
       sodipodi:cy="14.888165"
       sodipodi:rx="2.6543205"
       sodipodi:ry="2.6104696"
       sodipodi:start="6.2771014"
       sodipodi:end="6.2767191"
       sodipodi:open="true"
       sodipodi:arc-type="arc"
       d="m 23.763829,14.872284 a 2.6543205,2.6104696 0 0 1 -2.637869,2.626301 2.6543205,2.6104696 0 0 1 -2.67067,-2.594039 2.6543205,2.6104696 0 0 1 2.637359,-2.626797 2.6543205,2.6104696 0 0 1 2.671174,2.593537" />
    <path
       style="font-variation-settings:normal;opacity:1;vector-effect:none;fill:#393023;fill-opacity:1;fill-rule:evenodd;stroke:none;stroke-width:1.20689;stroke-linecap:butt;stroke-linejoin:miter;stroke-miterlimit:4;stroke-dasharray:none;stroke-dashoffset:0;stroke-opacity:1;-inkscape-stroke:none;stop-color:#000000;stop-opacity:1"
       id="path13949"
       sodipodi:type="arc"
       sodipodi:cx="17.222374"
       sodipodi:cy="14.888165"
       sodipodi:rx="2.7208607"
       sodipodi:ry="2.7909489"
       sodipodi:start="6.2771014"
       sodipodi:end="6.2767191"
       sodipodi:open="true"
       sodipodi:arc-type="arc"
       d="m 19.943184,14.871186 a 2.7208607,2.7909489 0 0 1 -2.703997,2.807875 2.7208607,2.7909489 0 0 1 -2.73762,-2.773382 2.7208607,2.7909489 0 0 1 2.703473,-2.808406 2.7208607,2.7909489 0 0 1 2.738138,2.772846" />
  </g>
  <g
     inkscape:label="face"
     inkscape:groupmode="layer"
     id="layer1"
     style="fill:#ffd39c;fill-opacity:1;stroke:none">
    <rect
       style="font-variation-settings:normal;opacity:1;vector-effect:none;fill:#ffd39c;fill-opacity:1;fill-rule:evenodd;stroke:none;stroke-width:0.395285;stroke-linecap:butt;stroke-linejoin:miter;stroke-miterlimit:4;stroke-dasharray:none;stroke-dashoffset:0;stroke-opacity:1;-inkscape-stroke:none;stop-color:#000000;stop-opacity:1"
       id="rect3563"
       width="2.7705224"
       height="5.7719216"
       x="15.488868"
       y="12.483418"
       ry="2.3248017"
       rx="0" />
    <path
       style="fill:#ffd39c;fill-opacity:1;stroke:none;stroke-width:0.3"
       id="path2345"
       sodipodi:type="arc"
       sodipodi:cx="16.874128"
       sodipodi:cy="8.7663021"
       sodipodi:rx="5.3794308"
       sodipodi:ry="5.3794308"
       sodipodi:start="6.2771014"
       sodipodi:end="6.2767191"
       sodipodi:open="true"
       sodipodi:arc-type="arc"
       d="M 22.25346,8.7335744 A 5.3794308,5.3794308 0 0 1 16.90737,14.14563 5.3794308,5.3794308 0 0 1 11.494803,8.8000581 5.3794308,5.3794308 0 0 1 16.839858,3.3869805 5.3794308,5.3794308 0 0 1 22.253447,8.7315178" />
    <path
       style="font-variation-settings:normal;opacity:1;vector-effect:none;fill:#ffd39c;fill-opacity:1;fill-rule:evenodd;stroke:none;stroke-width:0.3;stroke-linecap:butt;stroke-linejoin:miter;stroke-miterlimit:4;stroke-dasharray:none;stroke-dashoffset:0;stroke-opacity:1;-inkscape-stroke:none;stop-color:#000000;stop-opacity:1"
       id="path6893"
       sodipodi:type="arc"
       sodipodi:cx="8.6573486"
       sodipodi:cy="12.529408"
       sodipodi:rx="0.77343744"
       sodipodi:ry="1.0504898"
       sodipodi:start="6.2771014"
       sodipodi:end="6.2767191"
       sodipodi:open="true"
       sodipodi:arc-type="arc"
       d="M 9.4307718,12.523017 A 0.77343744,1.0504898 0 0 1 8.662128,13.579878 0.77343744,1.0504898 0 0 1 7.8839264,12.536 a 0.77343744,1.0504898 0 0 1 0.768495,-1.05706 0.77343744,1.0504898 0 0 1 0.7783485,1.043676"
       transform="rotate(-14.738063)" />
    <path
       style="font-variation-settings:normal;opacity:1;vector-effect:none;fill:#ffd39c;fill-opacity:1;fill-rule:evenodd;stroke:none;stroke-width:0.304027;stroke-linecap:butt;stroke-linejoin:miter;stroke-miterlimit:4;stroke-dasharray:none;stroke-dashoffset:0;stroke-opacity:1;-inkscape-stroke:none;stop-color:#000000;stop-opacity:1"
       id="path6895"
       sodipodi:type="arc"
       sodipodi:cx="-24.071228"
       sodipodi:cy="4.0829382"
       sodipodi:rx="0.79294252"
       sodipodi:ry="1.0523444"
       sodipodi:start="6.2771014"
       sodipodi:end="6.2767191"
       sodipodi:open="true"
       sodipodi:arc-type="arc"
       d="m -23.2783,4.0765359 a 0.79294252,1.0523444 0 0 1 -0.788028,1.0587266 0.79294252,1.0523444 0 0 1 -0.797827,-1.0457208 0.79294252,1.0523444 0 0 1 0.787875,-1.0589266 0.79294252,1.0523444 0 0 1 0.797978,1.0455185"
       transform="matrix(-0.96872351,-0.24814264,-0.26079379,0.96539453,0,0)" />
    <path
       style="font-variation-settings:normal;opacity:1;vector-effect:none;fill:#393023;fill-opacity:1;fill-rule:evenodd;stroke:none;stroke-width:1;stroke-linecap:butt;stroke-linejoin:miter;stroke-miterlimit:4;stroke-dasharray:none;stroke-dashoffset:0;stroke-opacity:1;-inkscape-stroke:none;stop-color:#000000;stop-opacity:1"
       id="path13981"
       sodipodi:type="arc"
       sodipodi:cx="14.501513"
       sodipodi:cy="9.8066311"
       sodipodi:rx="0.33909801"
       sodipodi:ry="0.61186862"
       sodipodi:start="6.2771014"
       sodipodi:end="6.2767191"
       sodipodi:open="true"
       sodipodi:arc-type="arc"
       d="M 14.840604,9.8029086 A 0.33909801,0.61186862 0 0 1 14.503608,10.418488 0.33909801,0.61186862 0 0 1 14.162421,9.8104706 0.33909801,0.61186862 0 0 1 14.499352,9.1947749 0.33909801,0.61186862 0 0 1 14.840603,9.8026746" />
    <path
       style="font-variation-settings:normal;opacity:1;vector-effect:none;fill:#393023;fill-opacity:1;fill-rule:evenodd;stroke:none;stroke-width:1;stroke-linecap:butt;stroke-linejoin:miter;stroke-miterlimit:4;stroke-dasharray:none;stroke-dashoffset:0;stroke-opacity:1;-inkscape-stroke:none;stop-color:#000000;stop-opacity:1"
       id="path13983"
       sodipodi:type="arc"
       sodipodi:cx="19.203592"
       sodipodi:cy="9.8066311"
       sodipodi:rx="0.33909801"
       sodipodi:ry="0.61186862"
       sodipodi:start="6.2771014"
       sodipodi:end="6.2767191"
       sodipodi:open="true"
       sodipodi:arc-type="arc"
       d="M 19.542684,9.8029086 A 0.33909801,0.61186862 0 0 1 19.205688,10.418488 0.33909801,0.61186862 0 0 1 18.864501,9.8104706 0.33909801,0.61186862 0 0 1 19.201432,9.1947749 0.33909801,0.61186862 0 0 1 19.542683,9.8026746" />
    <path
       style="fill:none;fill-opacity:1;stroke:#c65353;stroke-width:0.264583;stroke-dasharray:none;stroke-opacity:1"
       d="m 15.417155,11.946449 c 0.98457,0.764722 1.993206,0.919795 3.043809,0.01169"
       id="path14773"
       sodipodi:nodetypes="cc" />
  </g>
  <g
     inkscape:groupmode="layer"
     id="layer2"
     inkscape:label="fringe"
     style="fill:#393023;fill-opacity:1;stroke:none">
    <path
       style="fill:#393023;fill-opacity:1;stroke:none;stroke-width:0.3"
       d="m 11.045973,9.0202655 0.921423,0.01826 4.906732,-2.534818 4.780547,2.555718 1.166018,0.0301 L 22.774518,6.018866 21.643221,3.8717117 18.664909,2.671152 17.048772,2.9712919 14.855441,2.6480643 12.283859,4.2167715 11.045973,6.0881295 Z"
       id="path5387"
       sodipodi:nodetypes="ccccccccccccc" />
  </g>
  <g
     inkscape:groupmode="layer"
     id="layer5"
     inkscape:label="arm"
     style="fill:#ffd39c;fill-opacity:1;stroke:none">
    <rect
       style="font-variation-settings:normal;opacity:1;vector-effect:none;fill:#ffd39c;fill-opacity:1;fill-rule:evenodd;stroke:none;stroke-width:1;stroke-linecap:butt;stroke-linejoin:miter;stroke-miterlimit:4;stroke-dasharray:none;stroke-dashoffset:0;stroke-opacity:1;-inkscape-stroke:none;stop-color:#000000;stop-opacity:1"
       id="rect13127"
       width="2.3372908"
       height="5.6948156"
       x="10.102788"
       y="21.094246"
       ry="0.61184895" />
    <rect
       style="font-variation-settings:normal;opacity:1;vector-effect:none;fill:#ffd39c;fill-opacity:1;fill-rule:evenodd;stroke:none;stroke-width:1.0679;stroke-linecap:butt;stroke-linejoin:miter;stroke-miterlimit:4;stroke-dasharray:none;stroke-dashoffset:0;stroke-opacity:1;-inkscape-stroke:none;stop-color:#000000;stop-opacity:1"
       id="rect13129"
       width="2.4033053"
       height="4.7042913"
       x="-1.4421983"
       y="27.777311"
       ry="0.67859185"
       transform="matrix(0.87020828,-0.49268403,0.40257931,0.91538511,0,0)" />
    <rect
       style="font-variation-settings:normal;opacity:1;vector-effect:none;fill:#ffd39c;fill-opacity:1;fill-rule:evenodd;stroke:none;stroke-width:1;stroke-linecap:butt;stroke-linejoin:miter;stroke-miterlimit:4;stroke-dasharray:none;stroke-dashoffset:0;stroke-opacity:1;-inkscape-stroke:none;stop-color:#000000;stop-opacity:1"
       id="rect13134"
       width="2.3372908"
       height="5.6948156"
       x="21.426588"
       y="21.094246"
       ry="0.61184895" />
    <rect
       style="font-variation-settings:normal;opacity:1;vector-effect:none;fill:#ffd39c;fill-opacity:1;fill-rule:evenodd;stroke:none;stroke-width:1.0679;stroke-linecap:butt;stroke-linejoin:miter;stroke-miterlimit:4;stroke-dasharray:none;stroke-dashoffset:0;stroke-opacity:1;-inkscape-stroke:none;stop-color:#000000;stop-opacity:1"
       id="rect13136"
       width="2.4033053"
       height="4.7042913"
       x="-32.627144"
       y="10.992764"
       ry="0.67859185"
       transform="matrix(-0.87020828,-0.49268403,-0.40257931,0.91538511,0,0)" />
  </g>
  <g
     inkscape:groupmode="layer"
     id="layer4"
     inkscape:label="skirt"
     style="fill:#1c1220;fill-opacity:1">
    <rect
       style="fill:#3e455f;fill-opacity:1;stroke:none;stroke-width:0.341965"
       id="rect11493"
       width="8.8104658"
       height="1.521356"
       x="12.5281"
       y="26.177214"
       ry="0.76067799"
       rx="0" />
    <path
       style="fill:#3e455f;fill-opacity:1;stroke:none;stroke-width:0.3"
       d="M 9.7069009,33.866666 12.5281,27.400911 h 8.810466 l 2.755053,6.465755 z"
       id="path11551" />
  </g>
  <g
     inkscape:groupmode="layer"
     id="layer3"
     inkscape:label="shirt"
     style="stroke:none;fill:#c488d8;fill-opacity:1">
    <rect
       style="fill:#c488d8;fill-opacity:1;stroke:none;stroke-width:0.301996"
       id="rect10120"
       width="8.9865084"
       height="9.419776"
       x="12.440079"
       y="17.077869"
       ry="1.3390858"
       rx="0" />
    <path
       style="fill:#c488d8;fill-opacity:1;stroke:none;stroke-width:0.3"
       d="m 15.488868,15.115415 -3.048789,1.962456 3.517368,1.000231 0.975886,-1.000231 z"
       id="path10914"
       sodipodi:nodetypes="ccccc" />
    <path
       style="fill:#c488d8;fill-opacity:1;stroke:none;stroke-width:0.3"
       d="m 18.273904,15.115415 3.152683,1.962456 -3.40495,1.0288 -1.088304,-1.0288 z"
       id="path10904"
       sodipodi:nodetypes="ccccc" />
    <path
       style="fill:#c488d8;fill-opacity:1;stroke:none;stroke-width:0.3"
       d="m 12.477367,17.059505 -1.651403,0.768718 -1.1465443,3.710234 2.8808193,0.0069 z"
       id="path10916"
       sodipodi:nodetypes="ccccc" />
    <path
       style="fill:#c488d8;fill-opacity:1;stroke:none;stroke-width:0.3"
       d="m 21.411436,17.068807 1.651402,0.768718 1.146545,3.710234 -2.880819,0.0069 z"
       id="path10918"
       sodipodi:nodetypes="ccccc" />
  </g>
</svg>
